<svg width="550" height="100" fill="none" xmlns="http://www.w3.org/2000/svg"><path d="M44.774 73.768c4.096 0 7.232-.832 10.048-1.792L53.414 66.6c-2.048.768-4.224 1.28-6.848 1.28-5.376 0-7.296-2.368-7.296-7.552V47.4h14.336v-5.824H39.27V31.72h-6.08l-.96 9.856-8.704.32V47.4h8.384v12.928c0 8.064 3.264 13.44 12.864 13.44zm32.743 0c9.536 0 14.72-4.352 14.72-9.728 0-4.992-2.624-7.68-12.672-9.92-5.824-1.28-8.192-2.048-8.192-4.288 0-1.92 1.664-3.456 5.824-3.456 3.712 0 7.296 1.152 10.368 3.136l3.392-4.544c-3.2-2.112-7.936-4.16-13.12-4.16-8.832 0-13.824 3.904-13.824 9.408 0 4.736 3.776 7.744 12.16 9.472 7.296 1.536 8.704 2.688 8.704 4.736 0 2.112-2.048 3.776-6.4 3.776-5.12 0-9.408-1.472-13.184-3.968l-3.2 4.672c3.904 2.624 9.536 4.864 15.424 4.864zm23.975-19.2h28.416v-5.376h-28.416v5.376zm52.775 19.2c9.536 0 14.72-4.352 14.72-9.728 0-4.992-2.624-7.68-12.672-9.92-5.824-1.28-8.192-2.048-8.192-4.288 0-1.92 1.664-3.456 5.824-3.456 3.712 0 7.296 1.152 10.368 3.136l3.392-4.544c-3.2-2.112-7.936-4.16-13.12-4.16-8.832 0-13.824 3.904-13.824 9.408 0 4.736 3.776 7.744 12.16 9.472 7.296 1.536 8.704 2.688 8.704 4.736 0 2.112-2.048 3.776-6.4 3.776-5.12 0-9.408-1.472-13.184-3.968l-3.2 4.672c3.904 2.624 9.536 4.864 15.424 4.864zm44.007 0c4.096 0 7.232-.832 10.048-1.792l-1.408-5.376c-2.048.768-4.224 1.28-6.848 1.28-5.376 0-7.296-2.368-7.296-7.552V47.4h14.336v-5.824H192.77V31.72h-6.08l-.96 9.856-8.704.32V47.4h8.384v12.928c0 8.064 3.264 13.44 12.864 13.44zm28.391 0c4.224 0 8.448-2.112 11.776-4.672h.192l.576 3.904h6.016V54.376c0-8.768-4.8-13.568-13.504-13.568-5.376 0-10.56 2.112-14.336 4.352l2.688 4.928c3.264-1.792 6.784-3.328 10.304-3.328 5.12 0 7.232 2.624 7.488 6.144-15.488 1.088-21.696 4.608-21.696 11.648 0 5.504 4.352 9.216 10.496 9.216zm2.24-5.76c-3.136 0-5.632-1.216-5.632-4.032 0-3.392 3.328-5.696 14.592-6.464v6.656c-2.88 2.304-5.824 3.84-8.96 3.84zM255.248 73h7.424V51.56c2.88-2.944 4.992-4.416 8.064-4.416 4.288 0 5.888 2.304 5.888 7.36V73h7.424V53.544c0-8.128-3.328-12.736-10.56-12.736-4.8 0-8.384 2.496-11.328 5.504h-.256l-.576-4.736h-6.08V73zm49.959.768c3.52 0 7.04-1.984 9.472-4.416h.192l.576 3.648h6.08V27.816h-7.424v11.392l.384 5.312h-.192c-2.432-2.368-5.056-3.712-8.64-3.712-7.168 0-13.888 6.272-13.888 16.512 0 10.368 5.376 16.448 13.44 16.448zm1.792-6.08c-4.8 0-7.616-3.648-7.616-10.432 0-6.592 3.648-10.368 8-10.368 2.304 0 4.48.768 6.72 2.88v14.144c-2.176 2.56-4.48 3.776-7.104 3.776zm34.791 6.08c4.224 0 8.448-2.112 11.776-4.672h.192l.576 3.904h6.016V54.376c0-8.768-4.8-13.568-13.504-13.568-5.376 0-10.56 2.112-14.336 4.352l2.688 4.928c3.264-1.792 6.784-3.328 10.304-3.328 5.12 0 7.232 2.624 7.488 6.144-15.488 1.088-21.696 4.608-21.696 11.648 0 5.504 4.352 9.216 10.496 9.216zm2.24-5.76c-3.136 0-5.632-1.216-5.632-4.032 0-3.392 3.328-5.696 14.592-6.464v6.656c-2.88 2.304-5.824 3.84-8.96 3.84zM373.445 73h7.424V55.656c3.2-6.08 7.424-8.32 11.712-8.32 2.368 0 3.648.32 5.696.96l1.536-6.208c-1.856-.896-3.52-1.28-6.08-1.28-5.44 0-10.176 2.816-13.376 7.872h-.192l-.64-7.104h-6.08V73zm46.887.768c3.52 0 7.04-1.984 9.472-4.416h.192l.576 3.648h6.08V27.816h-7.424v11.392l.384 5.312h-.192c-2.432-2.368-5.056-3.712-8.64-3.712-7.168 0-13.888 6.272-13.888 16.512 0 10.368 5.376 16.448 13.44 16.448zm1.792-6.08c-4.8 0-7.616-3.648-7.616-10.432 0-6.592 3.648-10.368 8-10.368 2.304 0 4.48.768 6.72 2.88v14.144c-2.176 2.56-4.48 3.776-7.104 3.776zM445.139 73h7.744l4.096-6.144a218.16 218.16 0 013.392-5.632h.256c1.28 1.792 2.624 3.84 3.84 5.568L469.011 73h8l-11.456-15.552 10.688-15.872h-7.744l-3.712 5.888c-.96 1.728-2.112 3.648-3.072 5.44h-.256c-1.152-1.792-2.432-3.648-3.456-5.376l-4.096-5.952h-8l10.624 15.104L445.139 73z" fill="#000"/><g clip-path="url(#prefix__clip0)"><path d="M540.583 75.333a8.429 8.429 0 01-6.041-2.536L506.657 43l-1.596 1.739-5.074 5.146L486 35.7l6.602-6.696 1.796 1.224c.068.04.45.229.8.229.142 0 .315-.021.565-.277.513-.52.821-1.256 1.249-2.278.85-2.024 2.012-4.802 5.718-7.629 3.13-2.392 6.996-3.605 11.486-3.605 7.136 0 13.432 3.101 13.698 3.232l-.897 5.042c-4.361.443-11.988 2.032-8.727 5.352l28.369 30.288c1.578 1.606 2.464 3.779 2.464 6.091a8.655 8.655 0 01-2.501 6.123 8.425 8.425 0 01-6.039 2.538zM516.015 45.02l22.277 24.045c1.168 1.181 3.367 1.221 4.611-.035.618-.629.963-1.466.963-2.354 0-.888-.342-1.726-.966-2.358l-22.243-24.005-4.642 4.707zm-22.58-9.32l6.555 6.648.055-.059c-.363-1.488-.153-3.267 1.378-4.816.91-.923 2.044-1.41 3.288-1.41 1.712 0 3.437.906 5.271 2.77l2.348 2.381 4.645-4.712-2.406-2.44c-3.08-3.125-2.702-5.973-2.205-7.392.648-1.837 2.123-3.354 4.369-4.52a21.71 21.71 0 00-2.52-.152c-3.324 0-6.125.851-8.324 2.531-2.577 1.968-3.288 3.664-4.042 5.459-.558 1.333-1.134 2.709-2.37 3.96-1.184 1.205-2.665 1.84-4.279 1.84a6.48 6.48 0 01-1.639-.214l-.124.126zm35.647-1.651l8.774-8.79a1.124 1.124 0 011.607 0c.444.454.444 1.18.002 1.63l-8.818 8.835 2.277 2.432 8.877-8.894a1.124 1.124 0 011.607.003 1.158 1.158 0 010 1.624l-8.921 8.939 2.659 2.837 9.676-9.699a7.972 7.972 0 002.301-5.626c0-2.048-.77-4.099-2.314-5.667a7.786 7.786 0 00-5.56-2.339 7.782 7.782 0 00-5.56 2.339l-9.387 9.408 2.78 2.968zm-19.024 20.4l-10.855 10.648c-.602.61-1.323 1.085-2.078 1.488l-1.525.805-2.696 5.723 2.191 2.221 5.526-2.853.792-1.547a8.725 8.725 0 011.509-2.064l10.76-10.554-3.624-3.867z" fill="#000"/></g><defs><clipPath id="prefix__clip0"><path fill="#fff" transform="translate(486 14)" d="M0 0h63.123v64H0z"/></clipPath></defs></svg>
