<svg width="458" height="48" fill="none" xmlns="http://www.w3.org/2000/svg"><path d="M21.79 47c-3.584 0-6.4-1.024-8.448-3.072s-3.072-4.864-3.072-8.448V20.44H.99V11.8h9.28V1.88h9.6v9.92h13.12v8.64H19.87v15.04c0 1.92.96 2.88 2.88 2.88h9.6V47H21.79zm33.063.64c-2.901 0-5.44-.448-7.616-1.344-2.176-.939-3.883-2.219-5.12-3.84-1.195-1.621-1.792-3.52-1.792-5.696h9.6c0 1.024.448 1.856 1.344 2.496.939.597 2.133.896 3.584.896h2.816c3.584 0 5.376-1.216 5.376-3.648 0-2.005-1.664-3.221-4.992-3.648l-4.096-.512c-4.395-.555-7.595-1.621-9.6-3.2-2.005-1.579-3.008-3.99-3.008-7.232 0-3.413 1.173-6.059 3.52-7.936 2.347-1.877 5.781-2.816 10.304-2.816h2.432c4.31 0 7.744.939 10.304 2.816 2.56 1.877 3.84 4.395 3.84 7.552h-9.6c0-.853-.427-1.536-1.28-2.048-.81-.555-1.899-.832-3.264-.832h-2.432c-1.579 0-2.73.277-3.456.832-.725.512-1.088 1.301-1.088 2.368 0 .981.32 1.728.96 2.24.683.512 1.75.875 3.2 1.088l4.416.576c4.437.555 7.723 1.664 9.856 3.328 2.176 1.664 3.264 4.139 3.264 7.424 0 3.584-1.237 6.336-3.712 8.256s-6.123 2.88-10.944 2.88h-2.816zM84.46 30.36V21.4h20.48v8.96H84.46zm47.143 17.28c-2.901 0-5.44-.448-7.616-1.344-2.176-.939-3.883-2.219-5.12-3.84-1.195-1.621-1.792-3.52-1.792-5.696h9.6c0 1.024.448 1.856 1.344 2.496.939.597 2.133.896 3.584.896h2.816c3.584 0 5.376-1.216 5.376-3.648 0-2.005-1.664-3.221-4.992-3.648l-4.096-.512c-4.395-.555-7.595-1.621-9.6-3.2-2.005-1.579-3.008-3.99-3.008-7.232 0-3.413 1.173-6.059 3.52-7.936 2.347-1.877 5.781-2.816 10.304-2.816h2.432c4.309 0 7.744.939 10.304 2.816 2.56 1.877 3.84 4.395 3.84 7.552h-9.6c0-.853-.427-1.536-1.28-2.048-.811-.555-1.899-.832-3.264-.832h-2.432c-1.579 0-2.731.277-3.456.832-.725.512-1.088 1.301-1.088 2.368 0 .981.32 1.728.96 2.24.683.512 1.749.875 3.2 1.088l4.416.576c4.437.555 7.723 1.664 9.856 3.328 2.176 1.664 3.264 4.139 3.264 7.424 0 3.584-1.237 6.336-3.712 8.256s-6.123 2.88-10.944 2.88h-2.816zM175.29 47c-3.584 0-6.4-1.024-8.448-3.072s-3.072-4.864-3.072-8.448V20.44h-9.28V11.8h9.28V1.88h9.6v9.92h13.12v8.64h-13.12v15.04c0 1.92.96 2.88 2.88 2.88h9.6V47h-10.56zm29.991.64c-3.541 0-6.357-.96-8.448-2.88-2.048-1.92-3.072-4.523-3.072-7.808 0-3.541 1.216-6.25 3.648-8.128 2.475-1.92 6.016-2.88 10.624-2.88h7.296V23.32c0-1.365-.491-2.453-1.472-3.264-.939-.81-2.219-1.216-3.84-1.216-1.493 0-2.731.341-3.712 1.024-.981.683-1.579 1.621-1.792 2.816h-9.28c.384-3.541 1.92-6.336 4.608-8.384 2.731-2.09 6.229-3.136 10.496-3.136 4.48 0 8.021 1.11 10.624 3.328 2.645 2.176 3.968 5.12 3.968 8.832V47h-9.28v-5.76h-.192c-.512 2.005-1.664 3.584-3.456 4.736-1.792 1.11-4.032 1.664-6.72 1.664zm3.584-7.04c1.877 0 3.413-.49 4.608-1.472 1.237-1.024 1.856-2.347 1.856-3.968v-3.776h-7.104c-1.451 0-2.624.427-3.52 1.28-.896.81-1.344 1.899-1.344 3.264 0 1.45.491 2.603 1.472 3.456.981.81 2.325 1.216 4.032 1.216zm24.359 6.4V11.8h9.28v6.72h.192c.427-2.304 1.451-4.096 3.072-5.376 1.621-1.323 3.691-1.984 6.208-1.984 3.413 0 6.144 1.195 8.192 3.584 2.091 2.39 3.136 5.568 3.136 9.536V47h-9.6V25.24c0-1.835-.491-3.243-1.472-4.224-.939-1.024-2.283-1.536-4.032-1.536-1.707 0-3.029.512-3.968 1.536-.939.981-1.408 2.39-1.408 4.224V47h-9.6zm49.703.64c-3.541 0-6.379-1.237-8.512-3.712-2.133-2.475-3.2-5.824-3.2-10.048v-8.96c0-4.181 1.067-7.51 3.2-9.984 2.133-2.517 4.971-3.776 8.512-3.776 2.517 0 4.565.64 6.144 1.92 1.621 1.28 2.624 3.093 3.008 5.44h.192l-.32-8.64V.28h9.6V47h-9.28v-6.72h-.192c-.384 2.347-1.387 4.16-3.008 5.44-1.579 1.28-3.627 1.92-6.144 1.92zm3.456-8.32c1.749 0 3.115-.49 4.096-1.472.981-1.024 1.472-2.453 1.472-4.288v-8.32c0-1.835-.491-3.243-1.472-4.224-.981-1.024-2.347-1.536-4.096-1.536-1.792 0-3.179.512-4.16 1.536-.939.981-1.408 2.39-1.408 4.224v8.32c0 1.835.469 3.264 1.408 4.288.981.981 2.368 1.472 4.16 1.472zm34.023 8.32c-3.541 0-6.357-.96-8.448-2.88-2.048-1.92-3.072-4.523-3.072-7.808 0-3.541 1.216-6.25 3.648-8.128 2.475-1.92 6.016-2.88 10.624-2.88h7.296V23.32c0-1.365-.491-2.453-1.472-3.264-.939-.81-2.219-1.216-3.84-1.216-1.493 0-2.731.341-3.712 1.024-.981.683-1.579 1.621-1.792 2.816h-9.28c.384-3.541 1.92-6.336 4.608-8.384 2.731-2.09 6.229-3.136 10.496-3.136 4.48 0 8.021 1.11 10.624 3.328 2.645 2.176 3.968 5.12 3.968 8.832V47h-9.28v-5.76h-.192c-.512 2.005-1.664 3.584-3.456 4.736-1.792 1.11-4.032 1.664-6.72 1.664zm3.584-7.04c1.877 0 3.413-.49 4.608-1.472 1.237-1.024 1.856-2.347 1.856-3.968v-3.776h-7.104c-1.451 0-2.624.427-3.52 1.28-.896.81-1.344 1.899-1.344 3.264 0 1.45.491 2.603 1.472 3.456.981.81 2.325 1.216 4.032 1.216zm25.383 6.4V11.8h8.96v6.72h.128c1.152-4.907 4.437-7.36 9.856-7.36 3.883 0 6.891 1.173 9.024 3.52 2.176 2.347 3.264 5.653 3.264 9.92v2.88h-10.24v-2.24c0-1.92-.533-3.413-1.6-4.48-1.024-1.067-2.411-1.6-4.16-1.6-1.835 0-3.243.533-4.224 1.6-.939 1.067-1.408 2.56-1.408 4.48V47h-9.6zm48.679.64c-3.541 0-6.379-1.237-8.512-3.712-2.133-2.475-3.2-5.824-3.2-10.048v-8.96c0-4.181 1.067-7.51 3.2-9.984 2.133-2.517 4.971-3.776 8.512-3.776 2.517 0 4.565.64 6.144 1.92 1.621 1.28 2.624 3.093 3.008 5.44h.192l-.32-8.64V.28h9.6V47h-9.28v-6.72h-.192c-.384 2.347-1.387 4.16-3.008 5.44-1.579 1.28-3.627 1.92-6.144 1.92zm3.456-8.32c1.749 0 3.115-.49 4.096-1.472.981-1.024 1.472-2.453 1.472-4.288v-8.32c0-1.835-.491-3.243-1.472-4.224-.981-1.024-2.347-1.536-4.096-1.536-1.792 0-3.179.512-4.16 1.536-.939.981-1.408 2.39-1.408 4.224v8.32c0 1.835.469 3.264 1.408 4.288.981.981 2.368 1.472 4.16 1.472zM422.539 47l12.16-18.24-11.328-16.96h10.688l4.352 7.04c.341.555.661 1.173.96 1.856.299.683.533 1.237.704 1.664.171-.427.405-.981.704-1.664.341-.683.661-1.301.96-1.856l4.352-7.04h10.688l-11.264 16.96L457.611 47h-10.688l-5.12-8.32a72.602 72.602 0 01-1.024-1.856 59.16 59.16 0 01-.704-1.664 59.16 59.16 0 01-.704 1.664c-.299.64-.619 1.259-.96 1.856L433.227 47h-10.688z" fill="#000"/></svg>
